<?xml version="1.0" encoding="UTF-8"?>
<svg width="266px" height="35px" viewBox="0 0 266 35" version="1.1" xmlns="http://www.w3.org/2000/svg" xmlns:xlink="http://www.w3.org/1999/xlink">
    <title>Group 20</title>
    <defs>
        <polygon id="path-1" points="0 35 265.546898 35 265.546898 0 0 0"></polygon>
    </defs>
    <g id="Symbols" stroke="none" stroke-width="1" fill="none" fill-rule="evenodd">
        <g id="Moble-sticky" transform="translate(-227.000000, -47.000000)">
            <g id="Menu" transform="translate(227.000000, 45.000000)">
                <g id="Group-20" transform="translate(0.000000, 2.000000)">
                    <polygon id="Fill-1" fill="#FFFFFF" points="55.2877228 0 51.9919273 26.2015648 48.7133535 0 44 0 45.5165826 12.0265024 48.8113017 34 55.2048436 34 58.4834174 12.0604628 60 0"></polygon>
                    <path d="M63.8116254,0 L60.5145318,21.9904778 L59,34 L63.6953714,34 L64.6189451,26.7913434 L69.3810549,26.7913434 L70.2874058,34 L75,34 L73.4843918,21.9395372 L70.204521,0 L63.8116254,0 Z M66.9913886,7.79843516 L68.7707212,21.9395372 L65.212056,21.9395372 L66.9913886,7.79843516 Z" id="Fill-2" fill="#FFFFFF"></path>
                    <g id="Group-19">
                        <path d="M82.5510712,5.35748387 L82.5510712,15.0716774 L83.6725542,15.0716774 C84.3510797,15.0716774 84.8165797,15.0253871 85.0701814,14.9328065 C85.9560966,14.5760323 86.3990542,13.8557097 86.3990542,12.7729677 L86.3990542,7.67425806 C86.3990542,6.13087097 85.6912237,5.35748387 84.2766898,5.35748387 L82.5510712,5.35748387 Z M77.6672661,0.535387097 L84.7771305,0.535387097 C89.1131559,0.547806452 91.2817322,2.92667742 91.2817322,7.67425806 L91.2817322,12.7729677 C91.2817322,16.2763548 89.7229271,18.5344194 86.6053169,19.5482903 C85.8580373,19.7899032 84.7703678,19.9118387 83.3445627,19.9118387 L82.5510712,19.9118387 L82.5510712,34.447 L77.6672661,34.447 L77.6672661,0.535387097 Z" id="Fill-3" fill="#FFFFFF"></path>
                        <polygon id="Fill-5" fill="#FFFFFF" points="93.5695576 0.535951613 106.233863 0.535951613 106.233863 5.35804839 98.4522356 5.35804839 98.4522356 15.0711129 105.14732 15.0711129 105.14732 19.9112742 98.4522356 19.9112742 98.4522356 29.6254677 106.233863 29.6254677 106.233863 34.4464355 93.5695576 34.4464355"></polygon>
                        <mask id="mask-2" fill="white">
                            <use xlink:href="#path-1"></use>
                        </mask>
                        <g id="Clip-8"></g>
                        <polygon id="Fill-7" fill="#FFFFFF" mask="url(#mask-2)" points="116.941941 34.4467742 121.825746 34.4467742 121.825746 0.536290323 116.941941 0.536290323"></polygon>
                        <polygon id="Fill-9" fill="#FFFFFF" mask="url(#mask-2)" points="124.599472 0.535951613 129.483277 0.535951613 134.106718 20.2048226 134.106718 0.535951613 138.627591 0.535951613 138.627591 34.4464355 133.744913 34.4464355 129.292794 15.3996613 129.292794 34.4464355 124.599472 34.4464355"></polygon>
                        <polygon id="Fill-10" fill="#FFFFFF" mask="url(#mask-2)" points="141.364235 0.535951613 154.029667 0.535951613 154.029667 5.35804839 146.24804 5.35804839 146.24804 15.0711129 152.941997 15.0711129 152.941997 19.9112742 146.24804 19.9112742 146.24804 34.4464355 141.364235 34.4464355"></polygon>
                        <polygon id="Fill-11" fill="#FFFFFF" mask="url(#mask-2)" points="156.152144 34.4465484 156.152144 0.536064516 161.035949 0.536064516 161.035949 29.6244516 168.817576 29.6244516 168.817576 34.4465484"></polygon>
                        <path d="M184.690675,27.8620323 C184.690675,32.6096129 182.34965,34.9884839 177.668726,34.9997742 C172.996819,34.9997742 170.662557,32.6209032 170.662557,27.8620323 L170.662557,0.536064516 L175.545235,0.536064516 L175.545235,27.8620323 C175.545235,29.394129 176.253065,30.1607419 177.668726,30.1607419 C179.094531,30.1607419 179.80687,29.394129 179.80687,27.8620323 L179.80687,0.536064516 L184.690675,0.536064516 L184.690675,27.8620323 Z" id="Fill-12" fill="#FFFFFF" mask="url(#mask-2)"></path>
                        <polygon id="Fill-13" fill="#FFFFFF" mask="url(#mask-2)" points="187.329598 0.535951613 199.995031 0.535951613 199.995031 5.35804839 192.213403 5.35804839 192.213403 15.0711129 198.907361 15.0711129 198.907361 19.9112742 192.213403 19.9112742 192.213403 29.6254677 199.995031 29.6254677 199.995031 34.4464355 187.329598 34.4464355"></polygon>
                        <polygon id="Fill-14" fill="#FFFFFF" mask="url(#mask-2)" points="202.278798 0.535951613 207.161476 0.535951613 211.786044 20.2048226 211.786044 0.535951613 216.30579 0.535951613 216.30579 34.4464355 211.423112 34.4464355 206.97212 15.3996613 206.97212 34.4464355 202.278798 34.4464355"></polygon>
                        <path d="M232.899231,27.8620323 C232.899231,32.6096129 230.558205,34.9884839 225.877281,34.9997742 C221.206502,34.9997742 218.871112,32.6209032 218.871112,27.8620323 L218.871112,7.12058065 C218.871112,2.37412903 221.206502,-0.000225806452 225.877281,-0.000225806452 C230.558205,-0.000225806452 232.899231,2.37412903 232.899231,7.12058065 L232.899231,11.684129 L228.016553,11.684129 L228.016553,7.12058065 C228.016553,5.59977419 227.308722,4.83429032 225.894188,4.823 L225.859247,4.823 C224.455985,4.823 223.754917,5.58848387 223.754917,7.12058065 L223.754917,27.8620323 C223.754917,29.394129 224.46162,30.1607419 225.877281,30.1607419 C227.301959,30.1607419 228.016553,29.394129 228.016553,27.8620323 L228.016553,23.2984839 L232.899231,23.2984839 L232.899231,27.8620323 Z" id="Fill-15" fill="#FFFFFF" mask="url(#mask-2)"></path>
                        <polygon id="Fill-16" fill="#FFFFFF" mask="url(#mask-2)" points="235.344965 0.535951613 248.00927 0.535951613 248.00927 5.35804839 240.227643 5.35804839 240.227643 15.0711129 246.922728 15.0711129 246.922728 19.9112742 240.227643 19.9112742 240.227643 29.6254677 248.00927 29.6254677 248.00927 34.4464355 235.344965 34.4464355"></polygon>
                        <path d="M255.17628,5.35748387 L255.17628,15.0716774 L256.297763,15.0716774 C256.977415,15.0716774 257.442915,15.0253871 257.69539,14.9328065 C258.581305,14.5760323 259.024263,13.8557097 259.024263,12.7729677 L259.024263,7.67425806 C259.024263,6.13087097 258.317559,5.35748387 256.901898,5.35748387 L255.17628,5.35748387 Z M250.293602,0.535387097 L257.403466,0.535387097 C261.738364,0.547806452 263.908068,2.92667742 263.908068,7.67425806 L263.908068,12.7729677 C263.908068,15.757 262.62428,17.7215161 260.060085,18.6665161 L265.546898,34.447 L260.197593,34.447 L255.798449,19.5313548 L255.17628,19.6171613 L255.17628,34.447 L250.293602,34.447 L250.293602,0.535387097 Z" id="Fill-17" fill="#FFFFFF" mask="url(#mask-2)"></path>
                        <path d="M27.5153331,14.2166613 C27.496172,14.9381129 27.372189,15.6573065 27.1907229,16.3652097 C27.0081297,17.0742419 26.7297314,17.7516613 26.4096297,18.4042419 C25.7446297,19.6969839 24.8463161,20.8316613 23.8375449,21.7777903 L23.2638415,22.3265 C23.0913924,22.500371 22.9200703,22.6742419 22.7532568,22.850371 C22.5999686,23.0332742 22.4207568,23.2037581 22.2809941,23.3911774 L22.052189,23.6655323 L21.8425449,23.9489194 C21.691511,24.1329516 21.5787992,24.3339194 21.4367822,24.5247258 C21.3240703,24.7268226 21.1843076,24.9198871 21.0806127,25.1287581 C20.8472992,25.5363387 20.6500534,25.9665 20.4787314,26.4215 C19.7900619,28.1974677 19.5950703,30.3674677 19.8351466,32.8569839 C19.8407822,32.9055323 19.8441636,32.9540806 19.8497992,33.0037581 C19.8497992,33.0037581 19.8497992,33.0037581 19.848672,33.002629 L19.848672,33.0048871 C19.5432229,32.7847258 19.2704602,32.5273065 19.0168585,32.2495645 C18.8275025,32.0440806 18.6494178,31.8295645 18.4826042,31.6048871 C18.0892398,31.0765 17.7578669,30.4961774 17.48285,29.8774677 C17.1931805,29.2158548 16.9812822,28.5045645 16.8516636,27.7673065 C16.7378246,27.1260161 16.6882314,26.4632742 16.7119008,25.792629 C16.7310619,25.0745645 16.8550449,24.3565 17.0342568,23.6519839 C17.0353839,23.6497258 17.0353839,23.6474677 17.036511,23.6440806 C17.2191042,22.9350484 17.4975025,22.257629 17.8176042,21.6050484 C18.4826042,20.3123065 19.3809178,19.177629 20.389689,18.2315 L20.9645195,17.6827903 C21.1358415,17.5089194 21.3071636,17.3350484 21.4739771,17.1577903 C21.6283924,16.9760161 21.8064771,16.8055323 21.9473669,16.6169839 L22.1750449,16.342629 L22.384689,16.060371 C22.53685,15.8763387 22.6484347,15.675371 22.7904517,15.4845645 C22.9031636,15.2824677 23.0429263,15.0882742 23.1466212,14.8805323 C23.3799347,14.4729516 23.5771805,14.0427903 23.7485025,13.5877903 C24.4382992,11.8118226 24.6321636,9.64182258 24.3920873,7.15230645 C24.3875788,7.10375806 24.3830703,7.05520968 24.3774347,7.00553226 C24.3774347,7.00553226 24.3785619,7.00553226 24.3785619,7.00666129 L24.3785619,7.00440323 C24.684011,7.22456452 24.9567737,7.48198387 25.2103754,7.75972581 C25.3986042,7.96520968 25.5778161,8.17972581 25.7446297,8.40440323 C26.1391212,8.93279032 26.4693669,9.5131129 26.7443839,10.1318226 C27.2854008,11.3692419 27.5683076,12.7760161 27.5153331,14.2166613 M16.1325619,20.8689194 C16.0536636,21.0473065 15.9758924,21.2256935 15.9048839,21.4119839 C15.2162144,23.1879516 15.02235,25.3568226 15.2612992,27.8463387 C15.2669347,27.8960161 15.2714432,27.9445645 15.2770788,27.9942419 C15.2759517,27.9942419 15.2759517,27.9942419 15.2759517,27.9931129 L15.2759517,27.995371 C15.2759517,27.995371 15.2353754,27.9671452 15.1643669,27.9095645 C15.0133331,27.7932742 14.870189,27.6690806 14.7326805,27.5369839 C13.7070025,26.5908548 11.3479432,24.0573065 8.75895169,18.8298871 C8.53916356,18.4290806 8.33740932,18.0169839 8.16383305,17.5890806 C7.90234153,16.9105323 7.68480763,16.2116613 7.56533305,15.4890806 C7.44923983,14.767629 7.38950254,14.0394032 7.43458729,13.3190806 C7.50897712,11.8795645 7.91586695,10.5032742 8.56508729,9.31891935 C8.89420593,8.72843548 9.27404492,8.17859677 9.71474831,7.68859677 C9.90072288,7.47972581 10.0968415,7.28101613 10.3031042,7.09359677 C10.5803754,6.84069355 10.8756805,6.6081129 11.1991636,6.41504839 C11.1991636,6.41617742 11.1991636,6.41730645 11.1991636,6.41730645 C11.1991636,6.41730645 11.2002907,6.41730645 11.2002907,6.41617742 C11.1912737,6.46585484 11.1822568,6.51327419 11.1721127,6.56295161 C10.7122483,9.01972581 10.7122483,11.1987581 11.2419941,13.0289194 C11.3716127,13.4963387 11.5305364,13.9434355 11.725528,14.3702097 C11.811189,14.5869839 11.9329178,14.7924677 12.0275958,15.0024677 C12.1515788,15.2056935 12.2462568,15.4156935 12.3792568,15.6132742 L12.5641042,15.9135968 L12.7669856,16.2071452 C12.8842059,16.3968226 13.0352398,16.5752097 13.1682398,16.7592419 C13.1941636,16.7050484 13.2178331,16.6485968 13.2448839,16.5944032 C13.9098839,15.3039194 14.8070703,14.1681129 15.8169686,13.2219839 L16.390672,12.6744032 C16.5631212,12.4994032 16.7344432,12.3255323 16.9012568,12.1494032 C17.0545449,11.967629 17.2326297,11.7960161 17.3735195,11.6074677 L17.6011975,11.3331129 L17.8119686,11.0508548 C17.9630025,10.8668226 18.0745873,10.6647258 18.2166042,10.4761774 C18.3304432,10.2740806 18.4690788,10.0798871 18.5727737,9.87101613 C18.8060873,9.46343548 19.0033331,9.03214516 19.1757822,8.57940323 C19.8644517,6.80343548 20.0583161,4.63343548 19.8182398,2.14391935 C19.8137314,2.09424194 19.8092229,2.04569355 19.8035873,1.99601613 C19.8047144,1.99714516 19.8047144,1.99714516 19.8047144,1.99714516 L19.8047144,1.9948871 C20.1101636,2.21504839 20.3829263,2.47359677 20.636528,2.75020968 C20.8247568,2.95569355 21.0039686,3.17133871 21.1707822,3.3948871 C21.5652737,3.92327419 21.8966466,4.50359677 22.1705364,5.12230645 C22.7126805,6.35972581 22.9944602,7.7665 22.9414856,9.20714516 C22.9223246,9.92859677 22.7972144,10.6489194 22.6168754,11.3568226 C22.4354093,12.0658548 22.1558839,12.7421452 21.8357822,13.3947258 C21.1707822,14.6863387 20.2735958,15.8221452 19.2636975,16.7694032 L18.6899941,17.3169839 C18.5175449,17.4908548 18.3462229,17.6658548 18.1794093,17.8419839 C18.0261212,18.022629 17.8480364,18.1942419 17.7071466,18.3816613 L17.4794686,18.6571452 L17.2686975,18.9405323 C17.1176636,19.1245645 17.0060788,19.3244032 16.8640619,19.5152097 C16.7502229,19.7173065 16.6115873,19.9115 16.5067653,20.1192419 C16.3692568,20.3597258 16.247528,20.612629 16.1325619,20.8689194 M17.4704517,-0.000112903226 L17.4704517,-0.000112903226 C7.82118898,-0.000112903226 0.000112711863,7.83537097 0.000112711863,17.4998871 C0.000112711863,27.1655323 7.82118898,34.9998871 17.4704517,34.9998871 C27.1185873,34.9998871 34.9407907,27.1655323 34.9407907,17.4998871 C34.9407907,7.83537097 27.1185873,-0.000112903226 17.4704517,-0.000112903226" id="Fill-18" fill="#FF6200" mask="url(#mask-2)"></path>
                    </g>
                </g>
            </g>
        </g>
    </g>
</svg>